<svg width="40" height="40" viewBox="0 0 40 40" fill="none" xmlns="http://www.w3.org/2000/svg">
<g filter="url(#filter0_dd_137_556)">
<path d="M13.3333 24C11.8667 24 10.68 25.2 10.68 26.6667C10.68 28.1333 11.8667 29.3333 13.3333 29.3333C14.8 29.3333 16 28.1333 16 26.6667C16 25.2 14.8 24 13.3333 24ZM5.33333 2.66667V5.33333H8L12.8 15.4533L11 18.72C10.7867 19.0933 10.6667 19.5333 10.6667 20C10.6667 21.4667 11.8667 22.6667 13.3333 22.6667H29.3333V20H13.8933C13.7067 20 13.56 19.8533 13.56 19.6667L13.6 19.5067L14.8 17.3333H24.7333C25.7333 17.3333 26.6133 16.7867 27.0667 15.96L31.84 7.30667C31.9467 7.12 32 6.89333 32 6.66667C32 5.93333 31.4 5.33333 30.6667 5.33333H10.9467L9.69333 2.66667H5.33333ZM26.6667 24C25.2 24 24.0133 25.2 24.0133 26.6667C24.0133 28.1333 25.2 29.3333 26.6667 29.3333C28.1333 29.3333 29.3333 28.1333 29.3333 26.6667C29.3333 25.2 28.1333 24 26.6667 24Z" fill="white"/>
</g>
<defs>
<filter id="filter0_dd_137_556" x="0" y="0" width="40" height="40" filterUnits="userSpaceOnUse" color-interpolation-filters="sRGB">
<feFlood flood-opacity="0" result="BackgroundImageFix"/>
<feColorMatrix in="SourceAlpha" type="matrix" values="0 0 0 0 0 0 0 0 0 0 0 0 0 0 0 0 0 0 127 0" result="hardAlpha"/>
<feOffset dy="4"/>
<feGaussianBlur stdDeviation="2"/>
<feComposite in2="hardAlpha" operator="out"/>
<feColorMatrix type="matrix" values="0 0 0 0 0 0 0 0 0 0 0 0 0 0 0 0 0 0 0.25 0"/>
<feBlend mode="normal" in2="BackgroundImageFix" result="effect1_dropShadow_137_556"/>
<feColorMatrix in="SourceAlpha" type="matrix" values="0 0 0 0 0 0 0 0 0 0 0 0 0 0 0 0 0 0 127 0" result="hardAlpha"/>
<feOffset dy="4"/>
<feGaussianBlur stdDeviation="2"/>
<feComposite in2="hardAlpha" operator="out"/>
<feColorMatrix type="matrix" values="0 0 0 0 0 0 0 0 0 0 0 0 0 0 0 0 0 0 0.25 0"/>
<feBlend mode="normal" in2="effect1_dropShadow_137_556" result="effect2_dropShadow_137_556"/>
<feBlend mode="normal" in="SourceGraphic" in2="effect2_dropShadow_137_556" result="shape"/>
</filter>
</defs>
</svg>
